<svg xmlns="http://www.w3.org/2000/svg" xmlns:xlink="http://www.w3.org/1999/xlink" width="860" height="624.46"><rect width="860" height="624.46" rx="5" ry="5" class="a"/><svg y="0%" x="0%"><circle cx="20" cy="20" r="6" fill="#ff5f58"/><circle cx="40" cy="20" r="6" fill="#ffbd2e"/><circle cx="60" cy="20" r="6" fill="#18c132"/></svg><svg height="564.46" viewBox="0 0 82 56.446" width="820" x="15" xmlns="http://www.w3.org/2000/svg" xmlns:xlink="http://www.w3.org/1999/xlink" y="50"><style>@keyframes j{0%{transform:translateX(0)}9.2%{transform:translateX(-82px)}10.8%{transform:translateX(-164px)}12.4%{transform:translateX(-246px)}14%{transform:translateX(-328px)}15.6%{transform:translateX(-410px)}17.2%{transform:translateX(-492px)}18.8%{transform:translateX(-574px)}20.4%{transform:translateX(-656px)}22%{transform:translateX(-738px)}23.6%{transform:translateX(-820px)}25.2%{transform:translateX(-902px)}26.8%{transform:translateX(-984px)}28.4%{transform:translateX(-1066px)}30%{transform:translateX(-1148px)}31.7%{transform:translateX(-1230px)}33.3%{transform:translateX(-1312px)}34.9%{transform:translateX(-1394px)}36.5%{transform:translateX(-1476px)}38.1%{transform:translateX(-1558px)}39.7%{transform:translateX(-1640px)}41.3%{transform:translateX(-1722px)}44.7%{transform:translateX(-1804px)}47.5%{transform:translateX(-2296px)}50%{transform:translateX(-2788px)}52.3%{transform:translateX(-3280px)}54.1%{transform:translateX(-3690px)}}.a{fill:#282d35}.f,.g{fill:#b9c0cb;white-space:pre}.g{fill:#dbab79}</style><g font-family="Monaco,Consolas,Menlo,'Bitstream Vera Sans Mono','Powerline Symbols',monospace" font-size="1.67"><defs><symbol id="1"><text y="1.67" class="f">$</text><text x="2.004" y="1.67" class="f">dnscurse</text></symbol><symbol id="2"><text y="1.67" class="f">$</text><text x="2.004" y="1.67" class="f">dnscurse</text><text x="11.022" y="1.67" class="f">example.com</text></symbol><symbol id="3"><text y="1.67" class="f">example.</text><text x="8.016" y="1.67" class="g">com</text></symbol><symbol id="4"><text x="2.004" y="1.67" class="f">server</text><text x="10.02" y="1.67" class="f">a.root-servers.net</text><text x="29.058" y="1.67" class="f">(198.41.0.4)</text></symbol><symbol id="5"><text x="2.004" y="1.67" class="f">rcode</text><text x="10.02" y="1.67" class="f">NOERROR</text></symbol><symbol id="6"><text x="2.004" y="1.67" class="f">result</text><text x="10.02" y="1.67" class="f">referral</text><text x="19.038" y="1.67" class="f">→</text><text x="21.042" y="1.67" class="f">a.gtld-servers.net.,</text><text x="42.084" y="1.67" class="f">b.gtld-servers.net.</text></symbol><symbol id="7"><text x="2.004" y="1.67" class="f">time</text><text x="10.02" y="1.67" class="f">118.6ms</text></symbol><symbol id="8"><text y="1.67" class="g">example</text><text x="7.014" y="1.67" class="f">.com</text></symbol><symbol id="9"><text x="2.004" y="1.67" class="f">server</text><text x="10.02" y="1.67" class="f">a.gtld-servers.net.</text><text x="30.06" y="1.67" class="f">(192.5.6.30)</text></symbol><symbol id="10"><text x="2.004" y="1.67" class="f">result</text><text x="10.02" y="1.67" class="f">referral</text><text x="19.038" y="1.67" class="f">→</text><text x="21.042" y="1.67" class="f">hera.ns.cloudflare.com.,</text><text x="46.092" y="1.67" class="f">elliott.ns.cloudflare.com.</text></symbol><symbol id="11"><text x="2.004" y="1.67" class="f">time</text><text x="10.02" y="1.67" class="f">106.6ms</text></symbol><symbol id="12"><text x="2.004" y="1.67" class="f">server</text><text x="10.02" y="1.67" class="f">hera.ns.cloudflare.com.</text><text x="34.068" y="1.67" class="f">(108.162.192.162)</text></symbol><symbol id="13"><text x="2.004" y="1.67" class="f">result</text><text x="10.02" y="1.67" class="f">A</text><text x="12.024" y="1.67" class="f">104.18.26.120,</text><text x="27.054" y="1.67" class="f">A</text><text x="29.058" y="1.67" class="f">104.18.27.120</text></symbol><symbol id="14"><text x="2.004" y="1.67" class="f">time</text><text x="10.02" y="1.67" class="f">27.1ms</text></symbol><symbol id="15"><text x="2.004" y="1.67" class="f">Answer:</text></symbol><symbol id="16"><text x="4.008" y="1.67" class="f">example.com.</text><text x="24.048" y="1.67" class="f">300</text><text x="32.064" y="1.67" class="f">A</text><text x="40.08" y="1.67" class="f">104.18.26.120</text></symbol><symbol id="17"><text x="4.008" y="1.67" class="f">example.com.</text><text x="24.048" y="1.67" class="f">300</text><text x="32.064" y="1.67" class="f">A</text><text x="40.08" y="1.67" class="f">104.18.27.120</text></symbol><symbol id="a"><path fill="transparent" d="M0 0h82v27H0z"/></symbol><symbol id="b"><path fill="#6f7683" d="M0 0h1.102v2.171H0z"/></symbol></defs><path class="a" d="M0 0h82v56.446H0z"/><g style="animation-duration:4.359999999999999s;animation-iteration-count:infinite;animation-name:j;animation-timing-function:steps(1,end)"><svg width="3772"><svg><use xlink:href="#a"/><use xlink:href="#b" x="-.004"/></svg><svg x="82"><use xlink:href="#a"/><use xlink:href="#b" x="1.996"/><text y="1.67" class="f">$</text></svg><svg x="164"><use xlink:href="#a"/><use xlink:href="#b" x="2.996"/><text y="1.67" class="f">$</text><text x="2.004" y="1.67" class="f">d</text></svg><svg x="246"><use xlink:href="#a"/><use xlink:href="#b" x="3.996"/><text y="1.67" class="f">$</text><text x="2.004" y="1.67" class="f">dn</text></svg><svg x="328"><use xlink:href="#a"/><use xlink:href="#b" x="4.996"/><text y="1.67" class="f">$</text><text x="2.004" y="1.67" class="f">dns</text></svg><svg x="410"><use xlink:href="#a"/><use xlink:href="#b" x="5.996"/><text y="1.67" class="f">$</text><text x="2.004" y="1.67" class="f">dnsc</text></svg><svg x="492"><use xlink:href="#a"/><use xlink:href="#b" x="6.996"/><text y="1.67" class="f">$</text><text x="2.004" y="1.67" class="f">dnscu</text></svg><svg x="574"><use xlink:href="#a"/><use xlink:href="#b" x="7.996"/><text y="1.67" class="f">$</text><text x="2.004" y="1.67" class="f">dnscur</text></svg><svg x="656"><use xlink:href="#a"/><use xlink:href="#b" x="8.996"/><text y="1.67" class="f">$</text><text x="2.004" y="1.67" class="f">dnscurs</text></svg><svg x="738"><use xlink:href="#a"/><use xlink:href="#b" x="9.996"/><use xlink:href="#1"/></svg><svg x="820"><use xlink:href="#a"/><use xlink:href="#b" x="10.996"/><use xlink:href="#1"/></svg><svg x="902"><use xlink:href="#a"/><use xlink:href="#b" x="11.996"/><text y="1.67" class="f">$</text><text x="2.004" y="1.67" class="f">dnscurse</text><text x="11.022" y="1.67" class="f">e</text></svg><svg x="984"><use xlink:href="#a"/><use xlink:href="#b" x="12.996"/><text y="1.67" class="f">$</text><text x="2.004" y="1.67" class="f">dnscurse</text><text x="11.022" y="1.67" class="f">ex</text></svg><svg x="1066"><use xlink:href="#a"/><use xlink:href="#b" x="13.996"/><text y="1.67" class="f">$</text><text x="2.004" y="1.67" class="f">dnscurse</text><text x="11.022" y="1.67" class="f">exa</text></svg><svg x="1148"><use xlink:href="#a"/><use xlink:href="#b" x="14.996"/><text y="1.67" class="f">$</text><text x="2.004" y="1.67" class="f">dnscurse</text><text x="11.022" y="1.67" class="f">exam</text></svg><svg x="1230"><use xlink:href="#a"/><use xlink:href="#b" x="15.996"/><text y="1.67" class="f">$</text><text x="2.004" y="1.67" class="f">dnscurse</text><text x="11.022" y="1.67" class="f">examp</text></svg><svg x="1312"><use xlink:href="#a"/><use xlink:href="#b" x="16.996"/><text y="1.67" class="f">$</text><text x="2.004" y="1.67" class="f">dnscurse</text><text x="11.022" y="1.67" class="f">exampl</text></svg><svg x="1394"><use xlink:href="#a"/><use xlink:href="#b" x="17.996"/><text y="1.67" class="f">$</text><text x="2.004" y="1.67" class="f">dnscurse</text><text x="11.022" y="1.67" class="f">example</text></svg><svg x="1476"><use xlink:href="#a"/><use xlink:href="#b" x="18.996"/><text y="1.67" class="f">$</text><text x="2.004" y="1.67" class="f">dnscurse</text><text x="11.022" y="1.67" class="f">example.</text></svg><svg x="1558"><use xlink:href="#a"/><use xlink:href="#b" x="19.996"/><text y="1.67" class="f">$</text><text x="2.004" y="1.67" class="f">dnscurse</text><text x="11.022" y="1.67" class="f">example.c</text></svg><svg x="1640"><use xlink:href="#a"/><use xlink:href="#b" x="20.996"/><text y="1.67" class="f">$</text><text x="2.004" y="1.67" class="f">dnscurse</text><text x="11.022" y="1.67" class="f">example.co</text></svg><svg x="1722"><use xlink:href="#a"/><use xlink:href="#b" x="21.996"/><use xlink:href="#2"/></svg><svg x="1804"><use xlink:href="#a"/><use xlink:href="#b" x="-.004" y="2.146"/><use xlink:href="#2"/></svg><svg x="1886"><use xlink:href="#a"/><use xlink:href="#b" x="-.004" y="4.317"/><use xlink:href="#2"/><use xlink:href="#3" y="2.171"/></svg><svg x="1968"><use xlink:href="#a"/><use xlink:href="#b" x="-.004" y="6.488"/><use xlink:href="#2"/><use xlink:href="#3" y="2.171"/><use xlink:href="#4" y="4.342"/></svg><svg x="2050"><use xlink:href="#a"/><use xlink:href="#b" x="-.004" y="8.659"/><use xlink:href="#2"/><use xlink:href="#3" y="2.171"/><use xlink:href="#4" y="4.342"/><use xlink:href="#5" y="6.513"/></svg><svg x="2132"><use xlink:href="#a"/><use xlink:href="#b" x="-.004" y="10.83"/><use xlink:href="#2"/><use xlink:href="#3" y="2.171"/><use xlink:href="#4" y="4.342"/><use xlink:href="#5" y="6.513"/><use xlink:href="#6" y="8.684"/></svg><svg x="2214"><use xlink:href="#a"/><use xlink:href="#b" x="-.004" y="13.001"/><use xlink:href="#2"/><use xlink:href="#3" y="2.171"/><use xlink:href="#4" y="4.342"/><use xlink:href="#5" y="6.513"/><use xlink:href="#6" y="8.684"/><use xlink:href="#7" y="10.855"/></svg><svg x="2296"><use xlink:href="#a"/><use xlink:href="#b" x="-.004" y="15.172"/><use xlink:href="#2"/><use xlink:href="#3" y="2.171"/><use xlink:href="#4" y="4.342"/><use xlink:href="#5" y="6.513"/><use xlink:href="#6" y="8.684"/><use xlink:href="#7" y="10.855"/></svg><svg x="2378"><use xlink:href="#a"/><use xlink:href="#b" x="-.004" y="17.343"/><use xlink:href="#2"/><use xlink:href="#3" y="2.171"/><use xlink:href="#4" y="4.342"/><use xlink:href="#5" y="6.513"/><use xlink:href="#6" y="8.684"/><use xlink:href="#7" y="10.855"/><use xlink:href="#8" y="15.197"/></svg><svg x="2460"><use xlink:href="#a"/><use xlink:href="#b" x="-.004" y="19.514"/><use xlink:href="#2"/><use xlink:href="#3" y="2.171"/><use xlink:href="#4" y="4.342"/><use xlink:href="#5" y="6.513"/><use xlink:href="#6" y="8.684"/><use xlink:href="#7" y="10.855"/><use xlink:href="#8" y="15.197"/><use xlink:href="#9" y="17.368"/></svg><svg x="2542"><use xlink:href="#a"/><use xlink:href="#b" x="-.004" y="21.685"/><use xlink:href="#2"/><use xlink:href="#3" y="2.171"/><use xlink:href="#4" y="4.342"/><use xlink:href="#5" y="6.513"/><use xlink:href="#6" y="8.684"/><use xlink:href="#7" y="10.855"/><use xlink:href="#8" y="15.197"/><use xlink:href="#9" y="17.368"/><use xlink:href="#5" y="19.539"/></svg><svg x="2624"><use xlink:href="#a"/><use xlink:href="#b" x="-.004" y="23.856"/><use xlink:href="#2"/><use xlink:href="#3" y="2.171"/><use xlink:href="#4" y="4.342"/><use xlink:href="#5" y="6.513"/><use xlink:href="#6" y="8.684"/><use xlink:href="#7" y="10.855"/><use xlink:href="#8" y="15.197"/><use xlink:href="#9" y="17.368"/><use xlink:href="#5" y="19.539"/><use xlink:href="#10" y="21.71"/></svg><svg x="2706"><use xlink:href="#a"/><use xlink:href="#b" x="-.004" y="26.027"/><use xlink:href="#2"/><use xlink:href="#3" y="2.171"/><use xlink:href="#4" y="4.342"/><use xlink:href="#5" y="6.513"/><use xlink:href="#6" y="8.684"/><use xlink:href="#7" y="10.855"/><use xlink:href="#8" y="15.197"/><use xlink:href="#9" y="17.368"/><use xlink:href="#5" y="19.539"/><use xlink:href="#10" y="21.71"/><use xlink:href="#11" y="23.881"/></svg><svg x="2788"><use xlink:href="#a"/><use xlink:href="#b" x="-.004" y="28.198"/><use xlink:href="#2"/><use xlink:href="#3" y="2.171"/><use xlink:href="#4" y="4.342"/><use xlink:href="#5" y="6.513"/><use xlink:href="#6" y="8.684"/><use xlink:href="#7" y="10.855"/><use xlink:href="#8" y="15.197"/><use xlink:href="#9" y="17.368"/><use xlink:href="#5" y="19.539"/><use xlink:href="#10" y="21.71"/><use xlink:href="#11" y="23.881"/></svg><svg x="2870"><use xlink:href="#a"/><use xlink:href="#b" x="-.004" y="30.369"/><use xlink:href="#2"/><use xlink:href="#3" y="2.171"/><use xlink:href="#4" y="4.342"/><use xlink:href="#5" y="6.513"/><use xlink:href="#6" y="8.684"/><use xlink:href="#7" y="10.855"/><use xlink:href="#8" y="15.197"/><use xlink:href="#9" y="17.368"/><use xlink:href="#5" y="19.539"/><use xlink:href="#10" y="21.71"/><use xlink:href="#11" y="23.881"/><use xlink:href="#8" y="28.223"/></svg><svg x="2952"><use xlink:href="#a"/><use xlink:href="#b" x="-.004" y="32.54"/><use xlink:href="#2"/><use xlink:href="#3" y="2.171"/><use xlink:href="#4" y="4.342"/><use xlink:href="#5" y="6.513"/><use xlink:href="#6" y="8.684"/><use xlink:href="#7" y="10.855"/><use xlink:href="#8" y="15.197"/><use xlink:href="#9" y="17.368"/><use xlink:href="#5" y="19.539"/><use xlink:href="#10" y="21.71"/><use xlink:href="#11" y="23.881"/><use xlink:href="#8" y="28.223"/><use xlink:href="#12" y="30.394"/></svg><svg x="3034"><use xlink:href="#a"/><use xlink:href="#b" x="-.004" y="34.711"/><use xlink:href="#2"/><use xlink:href="#3" y="2.171"/><use xlink:href="#4" y="4.342"/><use xlink:href="#5" y="6.513"/><use xlink:href="#6" y="8.684"/><use xlink:href="#7" y="10.855"/><use xlink:href="#8" y="15.197"/><use xlink:href="#9" y="17.368"/><use xlink:href="#5" y="19.539"/><use xlink:href="#10" y="21.71"/><use xlink:href="#11" y="23.881"/><use xlink:href="#8" y="28.223"/><use xlink:href="#12" y="30.394"/><use xlink:href="#5" y="32.565"/></svg><svg x="3116"><use xlink:href="#a"/><use xlink:href="#b" x="-.004" y="36.882"/><use xlink:href="#2"/><use xlink:href="#3" y="2.171"/><use xlink:href="#4" y="4.342"/><use xlink:href="#5" y="6.513"/><use xlink:href="#6" y="8.684"/><use xlink:href="#7" y="10.855"/><use xlink:href="#8" y="15.197"/><use xlink:href="#9" y="17.368"/><use xlink:href="#5" y="19.539"/><use xlink:href="#10" y="21.71"/><use xlink:href="#11" y="23.881"/><use xlink:href="#8" y="28.223"/><use xlink:href="#12" y="30.394"/><use xlink:href="#5" y="32.565"/><use xlink:href="#13" y="34.736"/></svg><svg x="3198"><use xlink:href="#a"/><use xlink:href="#b" x="-.004" y="39.053"/><use xlink:href="#2"/><use xlink:href="#3" y="2.171"/><use xlink:href="#4" y="4.342"/><use xlink:href="#5" y="6.513"/><use xlink:href="#6" y="8.684"/><use xlink:href="#7" y="10.855"/><use xlink:href="#8" y="15.197"/><use xlink:href="#9" y="17.368"/><use xlink:href="#5" y="19.539"/><use xlink:href="#10" y="21.71"/><use xlink:href="#11" y="23.881"/><use xlink:href="#8" y="28.223"/><use xlink:href="#12" y="30.394"/><use xlink:href="#5" y="32.565"/><use xlink:href="#13" y="34.736"/><use xlink:href="#14" y="36.907"/></svg><svg x="3280"><use xlink:href="#a"/><use xlink:href="#b" x="-.004" y="41.224"/><use xlink:href="#2"/><use xlink:href="#3" y="2.171"/><use xlink:href="#4" y="4.342"/><use xlink:href="#5" y="6.513"/><use xlink:href="#6" y="8.684"/><use xlink:href="#7" y="10.855"/><use xlink:href="#8" y="15.197"/><use xlink:href="#9" y="17.368"/><use xlink:href="#5" y="19.539"/><use xlink:href="#10" y="21.71"/><use xlink:href="#11" y="23.881"/><use xlink:href="#8" y="28.223"/><use xlink:href="#12" y="30.394"/><use xlink:href="#5" y="32.565"/><use xlink:href="#13" y="34.736"/><use xlink:href="#14" y="36.907"/></svg><svg x="3362"><use xlink:href="#a"/><use xlink:href="#b" x="-.004" y="43.395"/><use xlink:href="#2"/><use xlink:href="#3" y="2.171"/><use xlink:href="#4" y="4.342"/><use xlink:href="#5" y="6.513"/><use xlink:href="#6" y="8.684"/><use xlink:href="#7" y="10.855"/><use xlink:href="#8" y="15.197"/><use xlink:href="#9" y="17.368"/><use xlink:href="#5" y="19.539"/><use xlink:href="#10" y="21.71"/><use xlink:href="#11" y="23.881"/><use xlink:href="#8" y="28.223"/><use xlink:href="#12" y="30.394"/><use xlink:href="#5" y="32.565"/><use xlink:href="#13" y="34.736"/><use xlink:href="#14" y="36.907"/><use xlink:href="#15" y="41.249"/></svg><svg x="3444"><use xlink:href="#a"/><use xlink:href="#b" x="-.004" y="45.566"/><use xlink:href="#2"/><use xlink:href="#3" y="2.171"/><use xlink:href="#4" y="4.342"/><use xlink:href="#5" y="6.513"/><use xlink:href="#6" y="8.684"/><use xlink:href="#7" y="10.855"/><use xlink:href="#8" y="15.197"/><use xlink:href="#9" y="17.368"/><use xlink:href="#5" y="19.539"/><use xlink:href="#10" y="21.71"/><use xlink:href="#11" y="23.881"/><use xlink:href="#8" y="28.223"/><use xlink:href="#12" y="30.394"/><use xlink:href="#5" y="32.565"/><use xlink:href="#13" y="34.736"/><use xlink:href="#14" y="36.907"/><use xlink:href="#15" y="41.249"/><use xlink:href="#16" y="43.42"/></svg><svg x="3526"><use xlink:href="#a"/><use xlink:href="#b" x="-.004" y="47.737"/><use xlink:href="#2"/><use xlink:href="#3" y="2.171"/><use xlink:href="#4" y="4.342"/><use xlink:href="#5" y="6.513"/><use xlink:href="#6" y="8.684"/><use xlink:href="#7" y="10.855"/><use xlink:href="#8" y="15.197"/><use xlink:href="#9" y="17.368"/><use xlink:href="#5" y="19.539"/><use xlink:href="#10" y="21.71"/><use xlink:href="#11" y="23.881"/><use xlink:href="#8" y="28.223"/><use xlink:href="#12" y="30.394"/><use xlink:href="#5" y="32.565"/><use xlink:href="#13" y="34.736"/><use xlink:href="#14" y="36.907"/><use xlink:href="#15" y="41.249"/><use xlink:href="#16" y="43.42"/><use xlink:href="#17" y="45.591"/></svg><svg x="3608"><use xlink:href="#a"/><use xlink:href="#b" x="-.004" y="49.908"/><use xlink:href="#2"/><use xlink:href="#3" y="2.171"/><use xlink:href="#4" y="4.342"/><use xlink:href="#5" y="6.513"/><use xlink:href="#6" y="8.684"/><use xlink:href="#7" y="10.855"/><use xlink:href="#8" y="15.197"/><use xlink:href="#9" y="17.368"/><use xlink:href="#5" y="19.539"/><use xlink:href="#10" y="21.71"/><use xlink:href="#11" y="23.881"/><use xlink:href="#8" y="28.223"/><use xlink:href="#12" y="30.394"/><use xlink:href="#5" y="32.565"/><use xlink:href="#13" y="34.736"/><use xlink:href="#14" y="36.907"/><use xlink:href="#15" y="41.249"/><use xlink:href="#16" y="43.42"/><use xlink:href="#17" y="45.591"/></svg><svg x="3690"><use xlink:href="#a"/><use xlink:href="#b" x="-.004" y="52.079"/><use xlink:href="#2"/><use xlink:href="#3" y="2.171"/><use xlink:href="#4" y="4.342"/><use xlink:href="#5" y="6.513"/><use xlink:href="#6" y="8.684"/><use xlink:href="#7" y="10.855"/><use xlink:href="#8" y="15.197"/><use xlink:href="#9" y="17.368"/><use xlink:href="#5" y="19.539"/><use xlink:href="#10" y="21.71"/><use xlink:href="#11" y="23.881"/><use xlink:href="#8" y="28.223"/><use xlink:href="#12" y="30.394"/><use xlink:href="#5" y="32.565"/><use xlink:href="#13" y="34.736"/><use xlink:href="#14" y="36.907"/><use xlink:href="#15" y="41.249"/><use xlink:href="#16" y="43.42"/><use xlink:href="#17" y="45.591"/><text x="2.004" y="51.603" class="f">3</text><text x="4.008" y="51.603" class="f">steps,</text><text x="11.022" y="51.603" class="f">252.2ms</text><text x="19.038" y="51.603" class="f">total</text></svg></svg></g></g></svg></svg>