<svg xmlns="http://www.w3.org/2000/svg" viewBox="0 0 720 520" font-family="'Segoe UI', system-ui, -apple-system, sans-serif" font-size="14">
  <defs>
    <style>
      .box { rx: 8; ry: 8; stroke-width: 1.5; }
      .label { font-weight: 600; }
      .mono { font-family: 'SF Mono', 'Fira Code', 'Cascadia Code', monospace; font-size: 13px; }
      .dim { fill: #8b949e; font-size: 12px; }
      .arrow { stroke-width: 1.5; fill: none; marker-end: url(#arrowhead); }
    </style>
    <marker id="arrowhead" markerWidth="8" markerHeight="6" refX="8" refY="3" orient="auto">
      <polygon points="0 0, 8 3, 0 6" fill="#8b949e"/>
    </marker>
  </defs>

  <!-- User box -->
  <rect x="180" y="16" width="360" height="64" class="box" fill="#1c2128" stroke="#3d444d"/>
  <text x="360" y="42" text-anchor="middle" fill="#e6edf3" class="label">User</text>
  <text x="360" y="62" text-anchor="middle" fill="#e6edf3" class="mono">dnscurse www.example.com [-c] [-t AAAA]</text>

  <!-- Arrow: User → DNScurse -->
  <path d="M360 80 L360 120" class="arrow" stroke="#8b949e"/>
  <text x="370" y="106" fill="#8b949e" class="dim">stdin/stdout (TTY)</text>

  <!-- DNScurse Process box -->
  <rect x="60" y="120" width="600" height="180" class="box" fill="#161b22" stroke="#3d444d"/>
  <text x="360" y="148" text-anchor="middle" fill="#e6edf3" class="label">DNScurse Process</text>

  <!-- Internal modules -->
  <rect x="90" y="164" width="100" height="36" rx="6" ry="6" fill="#1f6feb" fill-opacity="0.15" stroke="#1f6feb" stroke-opacity="0.4"/>
  <text x="140" y="187" text-anchor="middle" fill="#58a6ff" class="mono">cli.py</text>

  <rect x="230" y="164" width="120" height="36" rx="6" ry="6" fill="#1f6feb" fill-opacity="0.15" stroke="#1f6feb" stroke-opacity="0.4"/>
  <text x="290" y="187" text-anchor="middle" fill="#58a6ff" class="mono">resolver.py</text>

  <rect x="390" y="164" width="150" height="36" rx="6" ry="6" fill="#238636" fill-opacity="0.15" stroke="#238636" stroke-opacity="0.4"/>
  <text x="465" y="187" text-anchor="middle" fill="#3fb950" class="mono">dns.query.udp()</text>

  <rect x="150" y="220" width="120" height="32" rx="6" ry="6" fill="#1f6feb" fill-opacity="0.1" stroke="#1f6feb" stroke-opacity="0.25"/>
  <text x="210" y="241" text-anchor="middle" fill="#58a6ff" class="mono">models.py</text>

  <rect x="390" y="220" width="120" height="32" rx="6" ry="6" fill="#238636" fill-opacity="0.1" stroke="#238636" stroke-opacity="0.25"/>
  <text x="450" y="241" text-anchor="middle" fill="#3fb950" class="mono">dnspython</text>

  <!-- Internal arrows -->
  <path d="M190 182 L228 182" class="arrow" stroke="#8b949e"/>
  <path d="M350 182 L388 182" class="arrow" stroke="#8b949e"/>
  <path d="M290 200 L290 218" class="arrow" stroke="#8b949e" stroke-dasharray="4 3"/>

  <!-- ANSI output label -->
  <text x="100" y="275" fill="#8b949e" class="dim">ANSI terminal output</text>

  <!-- UDP/53 label inside process box -->
  <text x="475" y="275" fill="#8b949e" class="dim">UDP/53</text>

  <!-- Arrow: DNScurse → DNS Infrastructure -->
  <path d="M465 300 L465 350" class="arrow" stroke="#8b949e"/>

  <!-- Public DNS Infrastructure box -->
  <rect x="180" y="350" width="360" height="150" class="box" fill="#1c2128" stroke="#3d444d"/>
  <text x="360" y="378" text-anchor="middle" fill="#e6edf3" class="label">Public DNS Infrastructure</text>

  <!-- DNS hierarchy -->
  <text x="220" y="408" fill="#e6edf3" font-size="13">Root servers (.)</text>
  <text x="248" y="434" fill="#e6edf3" font-size="13">TLD servers (com., de., ...)</text>
  <text x="276" y="460" fill="#e6edf3" font-size="13">Authoritative servers</text>

  <!-- Tree lines for hierarchy -->
  <path d="M232 414 L232 424 L244 424" stroke="#3d444d" stroke-width="1.2" fill="none"/>
  <path d="M260 440 L260 450 L272 450" stroke="#3d444d" stroke-width="1.2" fill="none"/>
</svg>
